<svg width="15" height="15" viewBox="0 0 15 15" fill="none" xmlns="http://www.w3.org/2000/svg">
<path d="M14.4224 7.06509C15.5297 6.22756 14.9374 4.46263 13.5491 4.46263H11.037C10.4021 4.46263 9.84129 4.04901 9.65377 3.44247L8.90491 1.02021C8.48438 -0.34001 6.55904 -0.34001 6.13852 1.0202L5.38965 3.44247C5.20213 4.04901 4.64133 4.46263 4.00646 4.46263H1.45094C0.0670701 4.46263 -0.528074 6.21814 0.570486 7.05972L2.75921 8.73645C3.2392 9.10416 3.44013 9.73145 3.26311 10.3096L2.46786 12.9069C2.05544 14.2539 3.61441 15.3367 4.73266 14.4801L6.64126 13.0179C7.16077 12.62 7.88266 12.62 8.40217 13.0179L10.2939 14.4672C11.4138 15.3251 12.9742 14.238 12.5576 12.8902L11.7513 10.2823C11.5713 9.70009 11.7751 9.06754 12.2611 8.69995L14.4224 7.06509Z" fill="#FFAD33"/>
</svg>
