<svg width="32" height="36" viewBox="0 0 32 36" fill="none" xmlns="http://www.w3.org/2000/svg">
<path d="M3.69826 28.6344L3.69803 28.6342C2.82155 27.9807 2.0175 26.9485 1.4322 25.7819C0.846852 24.6153 0.502149 23.3577 0.502149 22.2745V9.82119C0.502149 7.45184 2.26452 4.89531 4.49373 4.06513L4.49469 4.06476L12.8467 0.934859C12.8468 0.934829 12.8468 0.934798 12.8469 0.934768C13.6037 0.651999 14.6074 0.502149 15.6336 0.502149C16.6597 0.502149 17.6635 0.651999 18.4202 0.934768C18.4203 0.934798 18.4204 0.934829 18.4204 0.934859L26.7724 4.06477L26.7734 4.06512C29.0026 4.89531 30.765 7.45184 30.765 9.82119V22.2577C30.765 23.3496 30.4201 24.6071 29.8351 25.7712C29.2501 26.9352 28.4461 27.9635 27.5691 28.6175L27.5689 28.6176L20.3714 33.9906L20.3714 33.9906L20.3652 33.9953C19.0769 34.9887 17.3817 35.4977 15.6503 35.4977C13.9203 35.4977 12.2208 34.9893 10.8948 34.0067C10.8947 34.0066 10.8945 34.0064 10.8943 34.0063L3.69826 28.6344ZM13.3825 2.35412L13.3818 2.35437L5.0294 5.48443L5.02869 5.4847C4.19755 5.7976 3.45313 6.46273 2.91993 7.23417C2.38655 8.00586 2.02533 8.94061 2.02533 9.83793V22.2745C2.02533 23.1728 2.33725 24.2054 2.79622 25.1211C3.25506 26.0366 3.89328 26.8999 4.60389 27.4305L4.60393 27.4305L11.8011 32.8033C12.8676 33.6009 14.2727 33.9829 15.6524 33.9829C17.0323 33.9829 18.4405 33.6008 19.5146 32.8045L19.5159 32.8035L26.7134 27.4306L26.7143 27.4299C27.4321 26.8915 28.0703 26.029 28.5276 25.1144C28.9849 24.1998 29.292 23.1718 29.292 22.2745V9.82119C29.292 8.93121 28.93 8.00058 28.3974 7.22998C27.8646 6.45913 27.1217 5.79134 26.2935 5.4698L26.2935 5.46977L26.288 5.46769L17.9355 2.33763L17.9356 2.33755L17.9265 2.33433C17.2856 2.10813 16.4539 2.00432 15.651 2.00651C14.8489 2.00869 14.0185 2.1168 13.3825 2.35412Z" fill="#FAFAFA" stroke="#FAFAFA"/>
<path d="M13.0524 19.0477L13.4074 19.4028L13.7625 19.0477L20.0728 12.7374C20.3622 12.448 20.8477 12.448 21.137 12.7374C21.4263 13.0267 21.4263 13.5122 21.137 13.8015L13.9395 20.9989C13.7876 21.1509 13.5995 21.2201 13.4074 21.2201C13.2154 21.2201 13.0273 21.1509 12.8754 20.9989L10.1805 18.3041C9.89121 18.0148 9.89121 17.5293 10.1805 17.24C10.4698 16.9506 10.9553 16.9506 11.2446 17.24L13.0524 19.0477Z" fill="#FAFAFA" stroke="#FAFAFA"/>
</svg>
