<svg width="40" height="57" viewBox="0 0 40 57" fill="none" xmlns="http://www.w3.org/2000/svg">
<path d="M30.1665 24.1415L30.1665 24.1494L30.1665 24.1574C30.167 24.3582 30.1354 24.5469 30.0824 24.706C30.0295 24.8651 29.9642 24.968 29.9167 25.0234C29.9162 25.0239 29.9158 25.0244 29.9154 25.0249L19.9929 36.4073L10.0805 24.6363L10.0793 24.6349C9.9836 24.5216 9.859 24.2665 9.83498 23.8953C9.8115 23.5323 9.89537 23.2141 10.008 23.0168L18.8521 33.5271L19.9804 34.8679L21.1311 33.5463L29.9904 23.3713C30.0065 23.3995 30.0232 23.4324 30.04 23.4707C30.1172 23.6473 30.1687 23.8819 30.1665 24.1415Z" fill="#4E4D4D" stroke="#4E4D4D" stroke-width="3"/>
</svg>
