<svg width="22" height="22" viewBox="0 0 22 22" fill="none" xmlns="http://www.w3.org/2000/svg">
<path d="M9.52035 5.10667L6.05895 1.11117C5.65992 0.650746 4.92835 0.652792 4.46485 1.11731L1.61838 3.9689C0.771188 4.81711 0.528695 6.07664 1.0188 7.08651C3.94673 13.1488 8.8359 18.0448 14.8941 20.9812C15.9029 21.4713 17.1614 21.2288 18.0086 20.3806L20.8817 17.5024C21.3472 17.0369 21.3482 16.3012 20.8837 15.9022L16.8729 12.4592C16.4534 12.099 15.8016 12.1461 15.3811 12.5677L13.9855 13.9653C13.914 14.0402 13.82 14.0896 13.7178 14.1058C13.6156 14.1221 13.5108 14.1044 13.4197 14.0554C11.1384 12.7417 9.24613 10.8469 7.93546 8.56398C7.88637 8.47266 7.8686 8.36776 7.88486 8.26537C7.90113 8.16298 7.95053 8.06875 8.0255 7.99714L9.41701 6.6046C9.83856 6.181 9.8846 5.52617 9.52035 5.10565V5.10667Z" stroke="white" stroke-width="1.5" stroke-linecap="round" stroke-linejoin="round"/>
</svg>
